<?xml version="1.0" encoding="UTF-8"?>
<svg xmlns="http://www.w3.org/2000/svg" xmlns:xlink="http://www.w3.org/1999/xlink" width="5000px" height="5000px" viewBox="0 0 5000 5000" version="1.1">
<g id="surface1">
<path style=" stroke:none;fill-rule:nonzero;fill:rgb(0%,0%,0%);fill-opacity:1;" d="M 1784.71875 1262.03125 C 1739.824219 1268.054688 1631.484375 1290.28125 1623.144531 1294.914062 C 1621.296875 1296.296875 1790.734375 1469.445312 2000.929688 1680.085938 C 2210.644531 1890.28125 2390.28125 2071.765625 2400.46875 2082.871094 C 2416.660156 2100.46875 2413.886719 2099.070312 2379.628906 2071.296875 C 2134.265625 1875 1837.96875 1785.175781 1618.054688 1840.734375 C 1582.414062 1850 1522.675781 1877.78125 1486.570312 1902.78125 C 1414.355469 1951.855469 1336.570312 2043.054688 1264.355469 2162.96875 L 1253.703125 2180.554688 L 1829.628906 2181.015625 C 2186.113281 2181.484375 2390.28125 2183.339844 2365.734375 2185.644531 C 2166.203125 2206.015625 1978.234375 2268.984375 1842.585938 2360.175781 C 1641.660156 2495.371094 1561.113281 2651.386719 1582.871094 2862.5 C 1588.429688 2913.429688 1603.234375 2995.371094 1615.734375 3041.660156 L 1621.296875 3061.570312 L 2042.128906 2640.734375 L 2462.96875 2219.914062 L 2462.96875 3064.355469 L 2436.570312 3069.445312 C 2346.296875 3087.03125 2266.660156 3133.796875 2212.96875 3200.46875 C 2184.71875 3235.175781 2156.015625 3292.128906 2144.914062 3334.265625 L 2136.570312 3365.734375 L 1619.914062 3365.734375 L 1621.296875 3401.386719 L 1622.675781 3437.5 L 2503.703125 3438.886719 L 3384.265625 3439.824219 L 3384.265625 3365.734375 L 2862.96875 3365.734375 L 2855.085938 3333.796875 C 2820.839844 3201.386719 2706.945312 3097.675781 2563.886719 3069.445312 L 2537.03125 3064.355469 L 2537.03125 2219.914062 L 2957.871094 2640.734375 L 3378.703125 3061.570312 L 3383.796875 3043.515625 C 3394.445312 3005.554688 3412.03125 2912.5 3417.128906 2863.429688 C 3436.113281 2682.871094 3377.324219 2537.96875 3236.113281 2419.445312 C 3113.886719 2317.128906 2970.371094 2250 2789.355469 2210.644531 C 2737.5 2199.53125 2650 2186.113281 2614.355469 2184.265625 C 2603.703125 2183.339844 2853.703125 2181.945312 3170.371094 2180.554688 L 3745.839844 2178.234375 L 3707.871094 2120.371094 C 3657.414062 2043.054688 3619.914062 1995.371094 3575.929688 1953.703125 C 3514.355469 1895.371094 3448.144531 1858.339844 3368.054688 1837.5 C 3331.484375 1827.78125 3316.203125 1826.386719 3240.734375 1826.855469 C 3166.203125 1826.855469 3147.21875 1828.703125 3094.914062 1839.824219 C 3011.113281 1856.945312 2935.644531 1883.339844 2853.234375 1924.070312 C 2780.554688 1959.71875 2681.015625 2022.675781 2617.585938 2073.613281 C 2583.796875 2100.929688 2582.414062 2101.386719 2599.53125 2082.871094 C 2609.71875 2071.765625 2789.824219 1890.28125 2999.53125 1679.628906 C 3252.78125 1425.46875 3379.160156 1295.839844 3375 1294.445312 C 3363.429688 1290.28125 3291.203125 1274.070312 3245.371094 1265.734375 C 3214.355469 1259.71875 3177.78125 1257.414062 3120.371094 1257.414062 C 3050.46875 1257.414062 3033.339844 1258.796875 2997.675781 1268.054688 C 2818.984375 1313.429688 2668.984375 1476.386719 2576.386719 1724.53125 C 2543.054688 1813.886719 2504.628906 1997.21875 2504.628906 2066.660156 C 2504.628906 2078.234375 2502.78125 2087.96875 2500 2087.96875 C 2497.675781 2087.96875 2495.371094 2078.234375 2495.371094 2065.734375 C 2495.371094 2035.175781 2480.085938 1933.796875 2465.28125 1868.054688 C 2408.796875 1613.886719 2269.914062 1397.675781 2106.015625 1308.339844 C 2018.054688 1260.175781 1910.644531 1244.914062 1784.71875 1262.03125 Z M 1784.71875 1262.03125 "/>
<path style=" stroke:none;fill-rule:nonzero;fill:rgb(0%,0%,0%);fill-opacity:1;" d="M 1824.070312 3555.554688 L 1824.070312 3592.585938 L 2499.53125 3592.585938 C 3111.113281 3592.585938 3175 3592.128906 3177.78125 3585.175781 C 3181.484375 3575.929688 3181.484375 3535.175781 3177.78125 3525.929688 C 3175 3518.984375 3111.113281 3518.515625 2499.53125 3518.515625 L 1824.070312 3518.515625 Z M 1824.070312 3555.554688 "/>
<path style=" stroke:none;fill-rule:nonzero;fill:rgb(0%,0%,0%);fill-opacity:1;" d="M 2132.871094 3674.53125 C 2131.015625 3675.929688 2129.628906 3692.585938 2129.628906 3711.570312 L 2129.628906 3745.371094 L 2870.839844 3745.371094 L 2869.445312 3709.265625 L 2868.054688 3673.613281 L 2501.855469 3672.21875 C 2300.46875 3671.765625 2134.265625 3672.675781 2132.871094 3674.53125 Z M 2132.871094 3674.53125 "/>
</g>
</svg>
